<svg width="65" height="65" viewBox="0 0 65 65" fill="none" xmlns="http://www.w3.org/2000/svg">
<g clip-path="url(#clip0_7055_33072)">
<g clip-path="url(#clip1_7055_33072)">
<mask id="mask0_7055_33072" style="mask-type:luminance" maskUnits="userSpaceOnUse" x="-18" y="-18" width="101" height="100">
<path d="M82.0067 -18H-18V82H82.0067V-18Z" fill="white"/>
</mask>
<g mask="url(#mask0_7055_33072)">
<path d="M12.001 53.4309C12.1844 53.4309 12.3827 53.4309 12.5944 53.4376C12.806 53.4409 13.0161 53.4542 13.2244 53.4742C13.4327 53.4942 13.6261 53.5242 13.8061 53.5642C13.9861 53.6042 14.1394 53.6643 14.2678 53.7443C14.5478 53.9126 14.7844 54.1443 14.9811 54.4393C15.1761 54.7343 15.2745 55.0993 15.2745 55.5293C15.2745 55.9843 15.1645 56.3793 14.9445 56.7093C14.7244 57.041 14.4111 57.286 14.0028 57.446V57.4694C14.5294 57.581 14.9345 57.8211 15.2128 58.1894C15.4928 58.5577 15.6328 59.0044 15.6328 59.5311C15.6328 59.8428 15.5761 60.1461 15.4645 60.4428C15.3528 60.7378 15.1861 60.9995 14.9678 61.2278C14.7478 61.4562 14.4761 61.6395 14.1528 61.7795C13.8294 61.9195 13.4561 61.9895 13.0327 61.9895H8.89758V53.4309H12.001ZM12.3127 57.111C12.9594 57.111 13.4261 56.9977 13.7094 56.7694C13.9928 56.541 14.1344 56.1993 14.1344 55.7443C14.1344 55.441 14.0861 55.201 13.9911 55.0243C13.8944 54.8493 13.7627 54.7126 13.5961 54.6159C13.4294 54.5193 13.2344 54.4576 13.0144 54.4309C12.7944 54.4026 12.561 54.3893 12.3127 54.3893H10.036V57.111H12.3127ZM12.8877 61.0312C13.3911 61.0312 13.7844 60.8962 14.0678 60.6228C14.3511 60.3511 14.4928 59.9761 14.4928 59.4961C14.4928 59.2161 14.4411 58.9844 14.3378 58.8011C14.2344 58.6177 14.0961 58.4711 13.9244 58.3644C13.7527 58.2561 13.5544 58.1811 13.3311 58.1361C13.1077 58.0927 12.876 58.0694 12.636 58.0694H10.0343V61.0295H12.8877V61.0312Z" fill="black"/>
<path d="M29.0099 53.4309V54.3892H24.2397V57.111H28.6866V58.0694H24.2397V61.0295H29.0466V61.9878H23.1014V53.4292H29.0116H29.0099V53.4309Z" fill="black"/>
<path d="M35.5068 54.3893V53.4309H42.352V54.3893H39.4986V61.9895H38.3602V54.3893H35.5068Z" fill="black"/>
<path d="M51.7723 53.4309L55.1175 61.9895H53.8591L52.9241 59.4128H49.3039L48.3456 61.9895H47.1822L50.514 53.4309H51.7723ZM52.564 58.4544L51.1373 54.4626H51.114L49.6639 58.4544H52.564Z" fill="black"/>
</g>
<mask id="mask1_7055_33072" style="mask-type:luminance" maskUnits="userSpaceOnUse" x="0" y="2" width="17" height="46">
<path d="M0.800629 2.00061V25.1247V47.7788H16.7812V25.1247V2.00061H0.800629Z" fill="white"/>
</mask>
<g mask="url(#mask1_7055_33072)">
<path d="M16.7812 2.00061H0.800629V47.7788H16.7812V2.00061Z" fill="url(#paint0_linear_7055_33072)"/>
</g>
<mask id="mask2_7055_33072" style="mask-type:luminance" maskUnits="userSpaceOnUse" x="19" y="2" width="33" height="46">
<path d="M19.9713 2.00061L28.0415 25.1247L34.1584 42.6486C35.2301 45.7204 38.1285 47.7788 41.3836 47.7788H51.929L44.0221 25.1247L35.9485 2.00061H19.9713Z" fill="white"/>
</mask>
<g mask="url(#mask2_7055_33072)">
<path d="M51.929 2.00061H19.9713V47.7788H51.929V2.00061Z" fill="url(#paint1_linear_7055_33072)"/>
</g>
<mask id="mask3_7055_33072" style="mask-type:luminance" maskUnits="userSpaceOnUse" x="47" y="2" width="17" height="46">
<path d="M47.2222 23.2547C47.2222 24.1097 47.3655 24.9581 47.6455 25.7664L55.2924 47.7788H55.5508C59.7776 47.7788 63.2027 44.3537 63.2027 40.1269V2.00232H47.2222V23.2547Z" fill="white"/>
</mask>
<g mask="url(#mask3_7055_33072)">
<path d="M63.2027 2.00049H47.2222V47.7787H63.2027V2.00049Z" fill="url(#paint2_linear_7055_33072)"/>
</g>
</g>
</g>
<defs>
<linearGradient id="paint0_linear_7055_33072" x1="-1.02277" y1="24.8918" x2="65.2078" y2="24.8918" gradientUnits="userSpaceOnUse">
<stop stop-color="#33D5DA"/>
<stop offset="1" stop-color="#3548FF"/>
</linearGradient>
<linearGradient id="paint1_linear_7055_33072" x1="-1.02277" y1="24.8918" x2="65.2078" y2="24.8918" gradientUnits="userSpaceOnUse">
<stop stop-color="#33D5DA"/>
<stop offset="1" stop-color="#3548FF"/>
</linearGradient>
<linearGradient id="paint2_linear_7055_33072" x1="-1.02276" y1="24.8917" x2="65.2078" y2="24.8917" gradientUnits="userSpaceOnUse">
<stop stop-color="#33D5DA"/>
<stop offset="1" stop-color="#3548FF"/>
</linearGradient>
<clipPath id="clip0_7055_33072">
<rect width="65" height="65" fill="white"/>
</clipPath>
<clipPath id="clip1_7055_33072">
<rect width="100.007" height="100" fill="white" transform="translate(-18 -18)"/>
</clipPath>
</defs>
</svg>
